<svg xmlns="http://www.w3.org/2000/svg" viewBox="0 0 240 58" preserveAspectRatio="xMidYMid slice" role="img" aria-label="MARIS">
  <defs>
    <linearGradient id="maris-bg" x1="0" y1="29" x2="240" y2="29" gradientUnits="userSpaceOnUse">
      <stop offset="0" stop-color="#004A85"/>
      <stop offset="0.38" stop-color="#0062AE"/>
      <stop offset="0.72" stop-color="#3D9494"/>
      <stop offset="1" stop-color="#96C45A"/>
    </linearGradient>
    <linearGradient id="maris-shine" x1="120" y1="0" x2="120" y2="58" gradientUnits="userSpaceOnUse">
      <stop offset="0" stop-color="#FFFFFF" stop-opacity="0.22"/>
      <stop offset="0.45" stop-color="#FFFFFF" stop-opacity="0.04"/>
      <stop offset="1" stop-color="#FFFFFF" stop-opacity="0"/>
    </linearGradient>
    <radialGradient id="maris-halo" cx="120" cy="28" r="34" gradientUnits="userSpaceOnUse">
      <stop offset="0" stop-color="#FFFFFF" stop-opacity="0.16"/>
      <stop offset="1" stop-color="#FFFFFF" stop-opacity="0"/>
    </radialGradient>
    <pattern id="maris-grid" width="14" height="14" patternUnits="userSpaceOnUse">
      <circle cx="7" cy="7" r="0.55" fill="#FFFFFF" opacity="0.07"/>
    </pattern>
    <linearGradient id="maris-flow" x1="40" y1="30" x2="200" y2="30" gradientUnits="userSpaceOnUse">
      <stop offset="0" stop-color="#D8F5A0" stop-opacity="0.35"/>
      <stop offset="0.5" stop-color="#FFFFFF" stop-opacity="0.95"/>
      <stop offset="1" stop-color="#D8F5A0" stop-opacity="0.35"/>
    </linearGradient>
  </defs>

  <rect width="240" height="58" fill="url(#maris-bg)"/>
  <rect width="240" height="58" fill="url(#maris-grid)"/>
  <rect width="240" height="24" fill="url(#maris-shine)"/>
  <ellipse cx="120" cy="30" rx="42" ry="24" fill="url(#maris-halo)"/>

  <path d="M 22 40 C 48 16, 78 22, 98 30" fill="none" stroke="#FFFFFF" stroke-opacity="0.18" stroke-width="1.1" stroke-linecap="round"/>
  <path d="M 218 40 C 192 16, 162 22, 142 30" fill="none" stroke="#FFFFFF" stroke-opacity="0.18" stroke-width="1.1" stroke-linecap="round"/>
  <circle cx="22" cy="40" r="2" fill="#B8E06A" opacity="0.95"/>
  <circle cx="218" cy="40" r="2" fill="#B8E06A" opacity="0.95"/>
  <circle cx="98" cy="30" r="1.3" fill="#FFFFFF" opacity="0.45"/>
  <circle cx="142" cy="30" r="1.3" fill="#FFFFFF" opacity="0.45"/>

  <path d="M 78 44 L 92 44 L 96 38 L 100 46 L 104 36 L 108 44 L 132 44 L 136 39 L 140 45 L 144 41 L 162 41"
        fill="none" stroke="#B8E06A" stroke-width="2.2" stroke-linecap="round" stroke-linejoin="round" opacity="0.28"/>
  <path d="M 78 44 L 92 44 L 96 38 L 100 46 L 104 36 L 108 44 L 132 44 L 136 39 L 140 45 L 144 41 L 162 41"
        fill="none" stroke="url(#maris-flow)" stroke-width="1.5" stroke-linecap="round" stroke-linejoin="round" opacity="0.92"/>

  <g fill="none" stroke="#FFFFFF" stroke-width="1.45" stroke-linecap="round" stroke-linejoin="round">
    <path d="M 106 17 V 37"/>
    <path d="M 106 17 L 120 31"/>
    <path d="M 134 17 L 120 31"/>
    <path d="M 134 17 V 37"/>
  </g>

  <circle cx="120" cy="31" r="2.1" fill="#0F1115" stroke="#B8E06A" stroke-width="1.1" opacity="0.95"/>
</svg>
